<?xml version="1.0" standalone="no"?>
<!DOCTYPE svg PUBLIC "-//W3C//DTD SVG 20010904//EN"
 "http://www.w3.org/TR/2001/REC-SVG-20010904/DTD/svg10.dtd">
<svg version="1.0" xmlns="http://www.w3.org/2000/svg"
 width="740.000000pt" height="740.000000pt" viewBox="0 0 740.000000 740.000000"
 preserveAspectRatio="xMidYMid meet">
<metadata>
Created by potrace 1.11, written by Peter Selinger 2001-2013
</metadata>
<g transform="translate(0.000000,740.000000) scale(0.100000,-0.100000)"
fill="#000000" stroke="none">
<path d="M2393 6158 l-742 -741 1 192 0 192 134 136 c74 74 132 138 130 142
-2 3 -62 6 -133 5 l-129 -1 -827 -827 -827 -828 2 -590 3 -590 168 168 169
169 236 1 237 0 -408 -407 -407 -407 2 -848 3 -848 486 0 486 0 -1 -286 0
-285 141 -3 141 -3 196 197 196 197 1 -54 c0 -30 0 -118 0 -196 l0 -143 92 0
92 0 198 191 c108 105 197 194 197 198 0 4 -127 6 -282 5 -156 0 -287 1 -291
4 -4 2 179 190 407 419 l415 415 71 0 c38 -1 100 -1 137 -1 l68 -1 -233 -233
-233 -233 0 -370 c0 -203 0 -375 0 -381 1 -10 328 -13 1600 -13 l1599 0 -1 73
-1 72 471 472 c259 260 468 474 465 478 -3 3 0 5 7 5 7 0 11 14 11 33 0 17 0
63 0 101 0 38 -2 71 -5 74 -2 3 0 10 5 17 6 7 6 23 1 43 -5 17 -7 33 -3 36 7
7 5 137 -3 144 -2 3 0 10 5 17 6 7 6 23 1 43 -5 17 -7 33 -4 36 4 3 6 45 5 94
0 87 0 88 34 121 19 19 34 38 34 42 0 5 4 9 9 9 4 0 43 35 86 78 l77 77 -117
3 -117 3 -476 -475 c-262 -261 -478 -473 -481 -470 -3 2 -5 101 -6 219 l0 215
259 260 260 261 -248 -1 c-136 -1 -251 1 -254 4 -6 6 531 550 558 565 13 8 15
-25 13 -275 -1 -156 1 -284 5 -283 4 0 133 129 287 285 154 156 410 416 570
577 l290 292 -288 3 c-158 1 -287 4 -287 7 0 3 169 173 375 379 l375 374 0
417 0 416 -376 -375 c-207 -207 -377 -376 -378 -376 -2 0 -3 122 -3 270 l0
270 169 0 c127 0 168 3 169 13 2 21 4 327 2 327 -1 0 -76 -74 -168 -165 -91
-91 -170 -163 -175 -160 -5 3 -5 18 0 33 4 16 4 36 -2 45 -5 10 -6 22 -2 28 9
16 11 288 2 282 -5 -2 -4 7 2 21 6 16 6 27 -1 31 -5 4 -7 10 -4 15 3 5 6 49 5
97 0 104 0 128 4 166 1 16 -1 30 -6 33 -5 3 -5 10 -2 16 6 9 9 726 5 808 -1 8
-57 -41 -126 -110 l-124 -124 0 164 c0 91 0 184 0 208 l-1 42 -338 0 -338 0
-444 -446 c-245 -245 -454 -449 -465 -454 -11 -4 -24 -5 -30 -2 -5 3 -41 6
-79 6 l-69 1 0 370 c0 204 -1 373 -3 377 -3 4 -87 -76 -188 -178 -101 -101
-189 -184 -195 -184 -6 0 -125 115 -265 255 l-255 255 -293 0 -293 0 -742
-742z m3080 -3606 c-10 -10 -20 -17 -22 -16 -6 5 20 34 30 34 5 0 1 -8 -8 -18z
m-33 -32 c0 -5 -5 -10 -11 -10 -5 0 -7 5 -4 10 3 6 8 10 11 10 2 0 4 -4 4 -10z
m-30 -28 c0 -4 -10 -13 -22 -21 -23 -14 -23 -14 -4 8 20 22 26 25 26 13z
m-132 -132 c-48 -49 -90 -90 -93 -90 -3 0 34 41 82 90 48 50 90 90 93 90 4 0
-33 -40 -82 -90z m-108 -110 c0 -5 -5 -10 -11 -10 -5 0 -7 5 -4 10 3 6 8 10
11 10 2 0 4 -4 4 -10z m-79 -78 c-20 -20 -38 -36 -40 -34 -6 3 61 72 70 72 4
0 -9 -17 -30 -38z m-64 -62 c-7 -10 -27 -29 -43 -41 -21 -17 -18 -11 11 19 44
46 53 52 32 22z m-97 -98 c0 -4 -10 -13 -22 -21 -23 -14 -23 -14 -4 8 20 22
26 25 26 13z m-68 -70 c-15 -15 -29 -26 -31 -25 -6 4 41 53 50 53 4 0 -4 -13
-19 -28z m-82 -86 c0 -2 -12 -11 -27 -20 l-28 -17 24 20 c23 21 31 25 31 17z
m-78 -74 c-15 -15 -29 -26 -31 -25 -6 4 41 53 50 53 4 0 -4 -13 -19 -28z m-71
-75 c-10 -9 -11 -8 -5 6 3 10 9 15 12 12 3 -3 0 -11 -7 -18z m-51 -46 c-5 -11
-15 -23 -21 -27 -6 -3 -3 5 6 20 20 30 30 35 15 7z m-56 -56 c-9 -14 -18 -25
-21 -25 -5 0 5 18 20 38 17 22 18 13 1 -13z m-39 -44 c-3 -6 -11 -11 -16 -11
-5 0 -4 6 3 14 14 16 24 13 13 -3z m-25 -25 c0 -2 -12 -11 -27 -20 l-28 -17
24 20 c23 21 31 25 31 17z m-50 -50 c0 -2 -7 -9 -15 -16 -13 -11 -14 -10 -9 4
5 14 24 23 24 12z m-49 -49 c-10 -9 -11 -8 -5 6 3 10 9 15 12 12 3 -3 0 -11
-7 -18z"/>
<path d="M4620 6835 c0 -36 4 -65 8 -65 4 0 37 29 72 65 l64 65 -72 0 -72 0 0
-65z"/>
<path d="M7155 6380 l-230 -230 -1 -240 c0 -132 2 -240 4 -240 2 0 109 105
238 234 l234 234 0 236 c0 130 -3 236 -8 236 -4 0 -111 -104 -237 -230z"/>
<path d="M1018 6240 l-237 -238 0 -243 0 -242 242 242 243 242 1 234 c0 130
-2 237 -6 239 -3 2 -113 -104 -243 -234z"/>
<path d="M2055 6205 c-60 -62 -110 -116 -112 -121 -4 -13 218 -9 226 4 6 10 6
221 -1 226 -1 1 -52 -48 -113 -109z"/>
<path d="M6927 2812 l-237 -237 0 -244 0 -243 242 242 242 242 1 239 c0 132
-2 239 -5 239 -3 0 -112 -107 -243 -238z"/>
</g>
</svg>
