<?xml version="1.0" encoding="UTF-8" standalone="no"?><!DOCTYPE svg PUBLIC "-//W3C//DTD SVG 1.1//EN" "http://www.w3.org/Graphics/SVG/1.1/DTD/svg11.dtd"><svg width="100%" height="100%" viewBox="0 0 10 8" version="1.1" xmlns="http://www.w3.org/2000/svg" xmlns:xlink="http://www.w3.org/1999/xlink" xml:space="preserve" xmlns:serif="http://www.serif.com/" style="fill-rule:evenodd;clip-rule:evenodd;stroke-linejoin:round;stroke-miterlimit:1.41421;"><g><path d="M9.431,0.697c0,-0.385 -0.313,-0.697 -0.698,-0.697l-8.036,0c-0.385,0 -0.697,0.312 -0.697,0.697l0,0.063c0,0.385 0.312,0.698 0.697,0.698l8.036,0c0.385,0 0.698,-0.313 0.698,-0.698l0,-0.063Z" style="fill:#003767;"/><path d="M9.431,3.785c0,-0.385 -0.313,-0.697 -0.698,-0.697l-8.036,0c-0.385,0 -0.697,0.312 -0.697,0.697l0,0.063c0,0.385 0.312,0.697 0.697,0.697l8.036,0c0.385,0 0.698,-0.312 0.698,-0.697l0,-0.063Z" style="fill:#003767;"/><path d="M9.431,6.873c0,-0.385 -0.313,-0.698 -0.698,-0.698l-8.036,0c-0.385,0 -0.697,0.313 -0.697,0.698l0,0.063c0,0.385 0.312,0.697 0.697,0.697l8.036,0c0.385,0 0.698,-0.312 0.698,-0.697l0,-0.063Z" style="fill:#003767;"/></g></svg>
