<?xml version="1.0" encoding="UTF-8"?>
<svg width="137px" height="36px" viewBox="0 0 137 36" version="1.1" xmlns="http://www.w3.org/2000/svg" xmlns:xlink="http://www.w3.org/1999/xlink">
    <!-- Generator: Sketch 51.1 (57501) - http://www.bohemiancoding.com/sketch -->
    <title>BASE</title>
    <desc>Created with Sketch.</desc>
    <defs></defs>
    <g id="Page-1" stroke="none" stroke-width="1" fill="none" fill-rule="evenodd">
        <path d="M15.1848965,35 L0.208333969,35 L0.208333969,1.1796875 L14.927084,1.1796875 C21.2786465,1.1796875 25.2630215,4.4375 25.2630215,9.6171875 C25.2630215,13.3203125 22.4973965,16.4140625 18.911459,16.953125 L18.911459,17.140625 C23.505209,17.4921875 26.880209,20.84375 26.880209,25.3203125 C26.880209,31.2734375 22.4036465,35 15.1848965,35 Z M7.28645897,6.453125 L7.28645897,15.2421875 L12.3723965,15.2421875 C16.145834,15.2421875 18.302084,13.578125 18.302084,10.71875 C18.302084,8 16.4036465,6.453125 13.098959,6.453125 L7.28645897,6.453125 Z M7.28645897,29.7265625 L13.380209,29.7265625 C17.458334,29.7265625 19.661459,27.9921875 19.661459,24.7578125 C19.661459,21.59375 17.3880215,19.90625 13.2161465,19.90625 L7.28645897,19.90625 L7.28645897,29.7265625 Z M59.726563,35 L57.148438,26.796875 L45.2656255,26.796875 L42.6875005,35 L35.4218755,35 L47.164063,1.1796875 L55.4843755,1.1796875 L67.2500005,35 L59.726563,35 Z M51.1250005,7.6484375 L46.789063,21.5 L55.6250005,21.5 L51.289063,7.6484375 L51.1250005,7.6484375 Z M75.3932295,25.3671875 L82.213542,25.3671875 C82.541667,28.15625 85.447917,29.984375 89.197917,29.984375 C92.9713545,29.984375 95.5494795,28.1796875 95.5494795,25.6953125 C95.5494795,23.4921875 93.932292,22.2734375 89.854167,21.359375 L85.447917,20.3984375 C79.213542,19.0625 76.1432295,15.8984375 76.1432295,10.953125 C76.1432295,4.71875 81.5338545,0.59375 89.0807295,0.59375 C96.9557295,0.59375 101.901042,4.6484375 102.018229,10.765625 L95.385417,10.765625 C95.151042,7.90625 92.6432295,6.171875 89.104167,6.171875 C85.6119795,6.171875 83.2682295,7.8359375 83.2682295,10.34375 C83.2682295,12.4296875 84.9088545,13.6015625 88.7994795,14.4921875 L92.901042,15.359375 C99.6744795,16.8125 102.627604,19.71875 102.627604,24.875 C102.627604,31.4375 97.307292,35.5859375 88.916667,35.5859375 C80.7838545,35.5859375 75.604167,31.71875 75.3932295,25.3671875 Z M136.036458,29.140625 L136.036458,35 L113.630208,35 L113.630208,1.1796875 L136.036458,1.1796875 L136.036458,7.015625 L120.708333,7.015625 L120.708333,15.171875 L135.169271,15.171875 L135.169271,20.609375 L120.708333,20.609375 L120.708333,29.140625 L136.036458,29.140625 Z" id="BASE" fill="#000000"></path>
    </g>
</svg>